<svg width="673" height="744" viewBox="0 0 673 744" fill="none" xmlns="http://www.w3.org/2000/svg">
<path fill-rule="evenodd" clip-rule="evenodd" d="M409.46 326.52C417.32 314.472 424.03 299.976 429.731 283.278C436.416 265.335 439.557 244.764 439.557 221.882C439.557 172.343 425.348 132.88 394.582 106.511C364.638 80.3801 318.09 68.8887 258.271 68.8887H638.244V680.776H283.531C319.403 680.776 350.317 676.091 375.795 666.149C400.747 656.413 421.442 643.061 437.326 625.768C452.989 608.713 464.142 588.769 470.743 566.124L470.755 566.071L470.771 566.019C477.145 543.542 480.298 519.956 480.298 495.315C480.298 473.14 477.461 453.257 471.408 435.972C466.093 418.735 458.601 403.546 448.767 390.65C439.189 378.099 428.072 367.374 415.425 358.532C408.876 353.954 402.077 349.811 395.034 346.102C400.113 340.033 404.918 333.501 409.46 326.52ZM322.925 303.66L322.774 303.898L322.631 304.142C318.412 311.382 313.896 317.214 309.157 321.813H192.66V162.112H261.531C289.811 162.112 309.534 167.814 322.487 177.323L322.707 177.485L322.934 177.638C333.77 184.969 341.808 201.129 341.808 232.991C341.808 250.056 339.772 264.026 336.075 275.212C332.006 286.927 327.581 296.336 322.925 303.66ZM377.369 459.917L377.45 460.218L377.544 460.512C380.827 470.843 382.55 482.402 382.55 495.315C382.55 524.914 374.461 546.957 359.561 563.055C345.212 578.559 322.687 587.555 289.235 587.555H192.66V410.764H283.531C304.272 410.764 320.799 413.226 333.52 417.67C346.579 422.234 356.172 428.295 362.967 435.421L363.127 435.586L363.293 435.751C370.134 442.475 374.789 450.446 377.369 459.917Z" fill="white"/>
<path d="M104.948 229.393L51.1537 236.294C49.1535 236.551 47.6553 238.26 47.6553 240.284V676.754C47.6553 678.974 49.4487 680.776 51.6612 680.776H105.456C107.668 680.776 109.461 678.974 109.461 676.754V233.382C109.461 230.959 107.342 229.086 104.948 229.393Z" fill="white"/>
<path d="M51.924 81.2504C44.5002 88.9764 40.7878 98.7626 40.7878 110.609C40.7878 122.455 44.5002 132.499 51.924 140.74C59.8434 148.466 69.4945 152.329 80.8782 152.329C92.7571 152.329 102.656 148.466 110.575 140.74C118.989 132.499 123.196 122.455 123.196 110.609C123.196 98.7626 118.989 88.9764 110.575 81.2504C102.656 73.0097 92.7571 68.8892 80.8782 68.8892C69.4945 68.8892 59.8434 73.0097 51.924 81.2504Z" fill="white"/>
</svg>
